<svg
  data-v-d4e732b0=""
  xmlns="http://www.w3.org/2000/svg"
  xmlns:xlink="http://www.w3.org/1999/xlink"
  width="200"
  height="150"
  viewBox="0 0 97.55 69.71"
  class="cart-empty-svg"
>
  <defs data-v-d4e732b0="">
    <clipPath data-v-d4e732b0="" id="a" transform="translate(-4.48 -4.75)">
      <rect data-v-d4e732b0="" width="100%" height="75.84" fill="none"></rect>
    </clipPath>
  </defs>
  <path
    data-v-d4e732b0=""
    d="M10.51,62.07a5.5,5.5,0,1,0-3.49-7A5.5,5.5,0,0,0,10.51,62.07Z"
    transform="translate(-4.48 -4.75)"
    fill="#e6e6e6"
  ></path>
  <path
    data-v-d4e732b0=""
    d="M101.34,19l-9.87-3.28a6.93,6.93,0,0,0-8.12,3l-4.66,8L13.7,5.1a7,7,0,0,0-9.13,6.84L4.48,43a7,7,0,0,0,4.76,6.31L52.9,63.76a6.94,6.94,0,0,0,8.13-3l24-41.06a4.93,4.93,0,0,1,5.77-2.1l9.87,3.27a1,1,0,1,0,.63-1.9ZM22,45.77a1,1,0,0,1-1,1,1.06,1.06,0,0,1-.31-.05,1,1,0,0,1-.69-.95l.08-31a1,1,0,0,1,1-1,1,1,0,0,1,1,1Zm15.38,5.1a1,1,0,0,1-1.32,1,1,1,0,0,1-.69-1l.08-31a1,1,0,0,1,1-1,1,1,0,0,1,1,1ZM52.77,56a1,1,0,0,1-1,1,.86.86,0,0,1-.32,0,1,1,0,0,1-.69-1l.09-31a1,1,0,0,1,2,0Z"
    transform="translate(-4.48 -4.75)"
    fill="#e6e6e6"
  ></path>
  <path
    data-v-d4e732b0=""
    d="M47.1,70.71a5.45,5.45,0,0,0,1.12-1.93,5.5,5.5,0,1,0-9.66,1.5c-2.33-.06-4.82-.1-7.4-.1-13.3,0-24.09,1-24.09,2.14s10.79,2.13,24.09,2.13,24.1-1,24.1-2.13C55.26,71.68,52.1,71.1,47.1,70.71Z"
    transform="translate(-4.48 -4.75)"
    fill="#e6e6e6"
  ></path>
</svg>
