<?xml version="1.0" encoding="utf-8"?>
<!-- Svg Vector Icons : http://www.onlinewebfonts.com/icon -->
<!DOCTYPE svg PUBLIC "-//W3C//DTD SVG 1.1//EN" "http://www.w3.org/Graphics/SVG/1.1/DTD/svg11.dtd">
<svg version="1.1" xmlns="http://www.w3.org/2000/svg" xmlns:xlink="http://www.w3.org/1999/xlink" x="0px" y="0px" viewBox="0 0 1000 1000" enable-background="new 0 0 1000 1000" xml:space="preserve">
<metadata> Svg Vector Icons : http://www.onlinewebfonts.com/icon </metadata>
<g><g transform="translate(0.000000,512.000000) scale(0.100000,-0.100000)"><path d="M1147,5002.8c-21.1-9.6-55.5-36.4-76.6-59.3c-38.3-42.1-38.3-68.9-38.3-1404.9V2177.6l3977.4-5.7L8985,2168l-3.8,1370.5l-5.7,1370.5l-63.2,55.5l-61.3,55.5l-3833.9-1.9C2909.8,5018.1,1168,5010.4,1147,5002.8z M3066.8,4156.8c111-23,245-126.3,283.3-222c47.8-111,40.2-120.6-88-120.6c-112.9,0-114.8,1.9-141.6,65.1c-32.5,80.4-80.4,107.2-181.8,107.2c-128.2,0-212.5-63.2-212.5-160.8c0-49.8,95.7-112.9,266-174.2c218.2-78.5,298.6-132.1,346.5-231.6c112.9-227.8-40.2-438.3-335-461.3c-233.5-19.1-436.4,72.7-509.2,229.7c-59.3,134-53.6,147.4,76.6,147.4c112.9,0,114.8,0,135.9-67c26.8-80.4,76.6-116.8,183.7-134c157-24.9,281.4,74.6,237.4,189.5c-23,63.2-72.7,93.8-271.8,164.6c-289,105.3-377.1,201-354.1,396.2C2525.1,4089.8,2787.3,4218,3066.8,4156.8z M5168.4,4124.2c204.8-103.4,283.3-285.2,271.8-614.4c-5.7-181.8-13.4-214.4-63.2-306.3c-99.5-179.9-269.9-266-488.1-245c-212.5,19.1-377.1,160.8-423,365.6c-11.5,57.4-19.1,185.7-13.4,300.5c5.7,176.1,13.4,210.6,61.2,300.5c97.6,174.2,252.7,258.4,461.3,245C5042.1,4166.3,5124.4,4147.2,5168.4,4124.2z M4372.2,4063v-95.7h-162.7h-162.7v-497.7V2972h-124.4h-124.4v497.7v497.7h-162.7h-162.7v95.7v95.7h449.8h449.8V4063z M6238.4,4137.6c95.7-26.8,191.4-97.6,229.7-170.4c15.3-30.6,28.7-105.3,28.7-164.6c0-101.4-5.7-112.9-76.6-185.7c-42.1-42.1-74.6-78.5-72.7-80.4c3.8-1.9,26.8-15.3,49.8-26.8c65.1-34.5,118.7-164.6,118.7-294.8c0-61.3,13.4-139.7,26.8-176.1l28.7-67h-122.5c-145.5,0-162.7,19.1-162.7,176.1c0,55.5-9.6,134-21,174.2c-24.9,93.8-101.5,128.2-275.6,128.2h-124.4v-239.3V2972h-114.8h-114.8v593.4v593.4h264.1C6043.1,4158.7,6196.2,4149.1,6238.4,4137.6z M7545.7,4068.7l-5.7-91.9l-281.4-5.7l-283.3-5.8v-141.6v-143.6h239.3h239.3v-95.7v-95.7h-239.3h-239.3v-162.7v-160.8l283.3-5.7l281.4-5.7l5.7-90l5.7-91.9h-411.5h-413.4v593.4v593.4h413.4h411.5L7545.7,4068.7z"/><path d="M4802.8,3944.3c-84.2-65.1-105.3-143.5-105.3-388.5c0-241.2,17.2-300.5,107.2-371.3c70.8-55.5,212.5-55.5,285.2,1.9c28.7,23,65.1,68.9,78.5,103.4c36.4,88,36.4,465.1,0,553.2C5112.9,3976.8,4913.8,4032.3,4802.8,3944.3z"/><path d="M5865.1,3795v-172.3h122.5c204.8,0,277.5,45.9,279.5,178c0,51.7-13.4,86.1-47.9,118.7c-42.1,42.1-61.3,47.9-201,47.9h-153.1V3795z"/><path d="M829.2,1997.7l-45.9-36.4l-5.7-1163.8C771.8-504,771.8-502.1,898.1-632.2c250.7-258.4,696.7-227.8,899.6,59.3l57.4,84.2l5.7,1261.4l5.7,1261.4H1369C909.6,2034.1,869.4,2032.1,829.2,1997.7z"/><path d="M2017.9,789.9c0-1188.6,1.9-1248,36.4-1316.9c91.9-176.1,273.7-277.5,499.6-277.5s411.5,103.3,495.7,281.4c40.2,78.5,40.2,107.2,40.2,1318.8v1238.4h-535.9h-535.9V789.9z"/><path d="M3231.4,788c11.5-1169.5,15.3-1249.9,47.9-1315c91.9-176.1,273.7-277.5,499.6-277.5c164.6,0,273.7,38.3,392.4,141.6c149.3,132.1,143.6,65.1,143.6,1458.5v1238.4h-549.3H3218L3231.4,788z"/><path d="M4467.9,795.7c0-1385.8-5.7-1320.7,135.9-1454.7c158.9-151.2,436.4-195.2,645-103.3c122.5,55.5,266.1,206.7,279.4,294.8c5.8,34.5,13.4,610.6,19.1,1282.4l11.5,1219.3h-545.5h-545.5V795.7z"/><path d="M5692.9,795.7c0-1167.6,3.8-1244.1,36.4-1316.9c82.3-178,269.9-285.2,501.5-285.2c130.2-1.9,160.8,5.8,277.5,65.1c143.6,74.6,227.8,170.4,256.5,298.6c9.6,40.2,19.1,614.4,19.1,1276.7v1200.1h-545.5h-545.5V795.7z"/><path d="M6917.9,795.7c0-1167.6,3.8-1244.1,36.4-1316.9c145.5-313.9,637.4-388.6,897.7-137.8c36.4,34.5,80.4,93.8,101.4,132.1c34.5,68.9,36.4,128.2,36.4,1316.9v1244.1h-535.9h-535.9V795.7z"/><path d="M8142.9,795.7c0-1211.6,0-1240.3,40.2-1318.8c84.2-178,269.9-281.4,495.8-281.4c227.8,0,403.9,97.6,503.4,283.3c42.1,76.6,42.1,82.3,42.1,1278.6v1203.9l-45.9,36.4c-40.2,34.4-80.4,36.4-539.8,36.4h-495.7V795.7z"/><path d="M1889.6-693.5c-82.3-124.4-336.9-258.4-493.8-258.4h-67v-1850.9c0-1726.5,3.8-1854.7,34.5-1893c17.2-23,51.7-51.7,74.7-63.2c30.6-15.3,668-21,2272-21h2231.8v1378.1v1378.1h918.7h918.8v-1378.1V-4780h373.2c298.6,0,386.7,5.7,430.7,28.7c120.6,63.2,114.8-36.4,114.8,1967.7v1826l-111,11.5c-185.7,19.1-363.7,114.8-459.4,245l-53.6,72.8l-80.4-93.8C7873-861.9,7706.5-938.5,7494-948c-130.2-5.7-187.6,0-273.7,30.6c-135.9,47.9-271.8,141.7-325.4,224l-42.1,63.2l-84.2-93.8c-231.6-258.4-656.5-302.4-957-99.5c-57.4,38.3-122.5,97.6-145.5,132.1l-42.1,63.2l-80.4-93.8c-53.6-61.3-124.4-114.8-208.6-157c-122.5-59.3-139.7-63.2-331.1-61.2c-160.8,0-218.2,7.7-287.1,40.2c-120.6,55.5-239.3,145.5-279.5,212.4l-32.5,57.4l-101.5-103.3c-59.3-61.3-147.4-126.3-212.5-157c-99.5-45.9-134-51.7-312-51.7c-183.8,0-210.5,5.7-315.8,55.5c-63.2,32.5-155,99.5-204.8,151.2l-91.9,91.9l-95.7-97.6c-53.6-55.5-143.6-120.6-204.8-149.3c-99.5-45.9-134-51.7-312-51.7c-189.5,0-210.5,3.8-329.2,63.2c-84.2,40.2-157,95.7-210.5,157l-82.3,93.8L1889.6-693.5z M5310-2425.7v-823H3771.1H2232.2v823v823h1538.9H5310V-2425.7z"/></g></g>
</svg>